<svg width="138" height="22" viewBox="0 0 138 22" fill="none" xmlns="http://www.w3.org/2000/svg">
<path d="M3.66977 21.7803H9.70788L19.2473 12.9977C19.7242 12.5585 19.9986 11.9325 19.9986 11.2825C19.9986 10.6324 19.7242 10.0065 19.2473 9.56724L9.7057 0.780273H3.66759C3.43461 0.780273 3.29307 0.934007 3.23863 1.07676C3.1842 1.21951 3.18638 1.42815 3.35622 1.58628L13.5751 10.9948C13.6534 11.0672 13.6992 11.1727 13.6992 11.2803C13.6992 11.3879 13.6534 11.4933 13.5751 11.5658L3.35839 20.9743C3.18638 21.1324 3.1842 21.341 3.24081 21.4838C3.29525 21.6265 3.43678 21.7803 3.66977 21.7803Z" fill="white"/>
<path d="M5.50898 5.1831L0.751225 9.56231C0.27436 10.0016 0 10.6275 0 11.2775C0 11.9276 0.27436 12.5535 0.751225 12.9928L5.50898 17.372L9.11922 14.0469L6.41916 11.5608C6.34077 11.4884 6.29505 11.383 6.29505 11.2753C6.29505 11.1677 6.34077 11.0623 6.41916 10.9898L9.11922 8.50375L5.50898 5.17871V5.1831Z" fill="white"/>
<path d="M16.3288 0.780273H11.4688L14.4911 3.56285L16.638 1.58628C16.8101 1.42815 16.8122 1.21951 16.7578 1.07676C16.7034 0.934007 16.5618 0.780273 16.3288 0.780273Z" fill="white"/>
<path d="M14.4911 18.9951L11.4688 21.7777H16.3288C16.5618 21.7777 16.7034 21.624 16.7578 21.4812C16.8122 21.3385 16.8101 21.1298 16.638 20.9717L14.4911 18.9951Z" fill="white"/>
<path d="M28 20.1724V1.90933H35.4989C36.6242 1.90933 37.6296 2.01079 38.5151 2.21371C39.4006 2.41663 40.157 2.72102 40.7842 3.12687C41.4114 3.51426 41.891 4.01235 42.2231 4.62112C42.5551 5.21144 42.7212 5.90323 42.7212 6.69647C42.7212 7.43438 42.5644 8.08927 42.2508 8.66114C41.9556 9.23302 41.476 9.70343 40.8118 10.0724C40.1477 10.4229 39.2715 10.6443 38.1831 10.7365V11.0409C40.0278 11.1331 41.3653 11.5666 42.1954 12.3414C43.044 13.0978 43.4683 14.1124 43.4683 15.3853C43.4683 16.4552 43.1824 17.3407 42.6105 18.0417C42.0571 18.7427 41.2454 19.2777 40.1754 19.6467C39.1054 19.9972 37.7772 20.1724 36.1907 20.1724H28ZM32.3997 16.6028H35.997C36.9932 16.6028 37.7496 16.4368 38.2661 16.1047C38.8011 15.7542 39.0686 15.2562 39.0686 14.6105C39.0686 13.891 38.7642 13.3561 38.1554 13.0055C37.5651 12.6366 36.6611 12.4521 35.4436 12.4521H32.3997V16.6028ZM32.3997 9.51896H34.9455C36.0708 9.51896 36.9194 9.3437 37.4913 8.9932C38.0632 8.64269 38.3491 8.11694 38.3491 7.41593C38.3491 6.75182 38.0908 6.26296 37.5743 5.94935C37.0578 5.61729 36.283 5.45126 35.2499 5.45126H32.3997V9.51896Z" fill="white"/>
<path d="M49.4955 20.5598C47.8536 20.5598 46.6361 19.9972 45.8428 18.8719C45.0496 17.7466 44.653 16.0217 44.653 13.6973V5.56195H49.1357V13.5036C49.1357 14.6474 49.3018 15.4683 49.6338 15.9664C49.9659 16.4645 50.4547 16.7135 51.1004 16.7135C51.5247 16.7135 51.9121 16.6028 52.2626 16.3815C52.6131 16.1601 52.9175 15.828 53.1758 15.3853C53.434 14.9425 53.6277 14.3983 53.7569 13.7527C53.886 13.0886 53.9506 12.323 53.9506 11.456V5.56195H58.4333V20.1724H54.6977L54.67 14.8319H54.3656C54.2181 16.1601 53.9413 17.2485 53.5355 18.0971C53.1481 18.9457 52.6131 19.5729 51.9306 19.9787C51.2664 20.3661 50.4548 20.5598 49.4955 20.5598Z" fill="white"/>
<path d="M66.5709 20.5598C65.5932 20.5598 64.6892 20.4676 63.8591 20.2831C63.0474 20.0986 62.3279 19.8035 61.7007 19.3976C61.0919 18.9918 60.6215 18.4753 60.2895 17.848C59.9574 17.2024 59.7914 16.4368 59.7914 15.5513L63.527 14.8872C63.5824 15.4037 63.7392 15.8557 63.9974 16.2431C64.2742 16.6121 64.6339 16.898 65.0766 17.1009C65.5378 17.2854 66.1005 17.3776 66.7646 17.3776C67.3918 17.3776 67.9083 17.2762 68.3142 17.0732C68.7385 16.8703 68.9506 16.5475 68.9506 16.1047C68.9506 15.8465 68.8584 15.6436 68.6739 15.496C68.5079 15.3299 68.2127 15.1824 67.7884 15.0532C67.3826 14.9057 66.8107 14.7396 66.0728 14.5551C65.2058 14.3522 64.3941 14.1401 63.6377 13.9187C62.8998 13.6789 62.2449 13.3929 61.673 13.0609C61.1196 12.7288 60.6861 12.3138 60.3725 11.8157C60.0773 11.2991 59.9297 10.6535 59.9297 9.87868C59.9297 8.90096 60.188 8.0616 60.7045 7.36059C61.2395 6.65958 61.9867 6.1246 62.9459 5.75565C63.9052 5.36825 65.0213 5.17455 66.2942 5.17455C67.4564 5.17455 68.5171 5.3498 69.4764 5.7003C70.4356 6.03236 71.2012 6.56734 71.7731 7.30524C72.3634 8.0247 72.6401 8.96553 72.6032 10.1277L68.8676 10.7642C68.8676 10.2661 68.7569 9.84179 68.5355 9.49128C68.3142 9.14078 68.0006 8.87329 67.5947 8.68881C67.1889 8.50434 66.7 8.4121 66.1281 8.4121C65.4825 8.4121 64.9752 8.52279 64.6062 8.74416C64.2557 8.96553 64.0805 9.26069 64.0805 9.62964C64.0805 9.90635 64.1911 10.1462 64.4125 10.3491C64.6523 10.5336 65.0028 10.6996 65.464 10.8472C65.9252 10.9763 66.5155 11.1147 67.235 11.2623C67.8991 11.4098 68.5724 11.5851 69.255 11.788C69.9376 11.9725 70.574 12.24 71.1643 12.5905C71.7547 12.9225 72.2251 13.3653 72.5756 13.9187C72.9445 14.4537 73.129 15.1455 73.129 15.9941C73.129 16.9164 72.8707 17.7281 72.3542 18.4291C71.8561 19.1117 71.1182 19.6375 70.1405 20.0064C69.1812 20.3754 67.9913 20.5598 66.5709 20.5598Z" fill="white"/>
<path d="M74.356 20.1724V5.56195H78.8111V20.1724H74.356ZM76.5698 4.20605C75.7212 4.20605 75.0663 4.0308 74.6051 3.68029C74.1623 3.32979 73.941 2.81326 73.941 2.1307C73.941 1.42969 74.1623 0.903931 74.6051 0.553427C75.0663 0.184476 75.7212 0 76.5698 0C77.4368 0 78.0917 0.184476 78.5344 0.553427C78.9956 0.903931 79.2262 1.42969 79.2262 2.1307C79.2262 2.79481 78.9956 3.31134 78.5344 3.68029C78.0917 4.0308 77.4368 4.20605 76.5698 4.20605Z" fill="white"/>
<path d="M80.6934 20.1724V5.56195H84.4014L84.4291 11.0409H84.7611C84.9087 9.71265 85.1762 8.61502 85.5636 7.74799C85.951 6.88095 86.486 6.23528 87.1685 5.81099C87.8511 5.38669 88.6997 5.17455 89.7143 5.17455C91.3377 5.17455 92.5645 5.72798 93.3946 6.83483C94.2247 7.92324 94.6398 9.58352 94.6398 11.8157V20.1724H90.1571V12.3691C90.1571 11.2254 89.9818 10.3768 89.6313 9.82334C89.2992 9.26991 88.7735 8.9932 88.054 8.9932C87.4637 8.9932 86.9472 9.19612 86.5044 9.60197C86.0801 9.98937 85.7481 10.5981 85.5083 11.4283C85.2684 12.24 85.1485 13.2915 85.1485 14.5828V20.1724H80.6934Z" fill="white"/>
<path d="M103.299 20.5598C101.953 20.5598 100.809 20.3754 99.868 20.0064C98.9271 19.619 98.1523 19.0933 97.5436 18.4291C96.9533 17.7466 96.5197 16.9626 96.243 16.0771C95.9663 15.1731 95.8279 14.2046 95.8279 13.1716C95.8279 12.0832 95.9663 11.0593 96.243 10.1001C96.5382 9.12233 96.9809 8.27374 97.5713 7.55429C98.1616 6.81638 98.9087 6.23528 99.8126 5.81099C100.717 5.38669 101.777 5.17455 102.995 5.17455C104.231 5.17455 105.292 5.38669 106.177 5.81099C107.081 6.21684 107.81 6.80716 108.363 7.58196C108.917 8.33831 109.285 9.23302 109.47 10.2661C109.654 11.2991 109.664 12.4245 109.498 13.642L98.6504 13.808V11.4006L106.343 11.2623L105.458 12.5905C105.568 11.7234 105.541 11.004 105.375 10.4321C105.209 9.84179 104.923 9.39905 104.517 9.10388C104.129 8.80872 103.631 8.66114 103.023 8.66114C102.358 8.66114 101.805 8.83639 101.362 9.1869C100.938 9.5374 100.624 10.0355 100.421 10.6812C100.218 11.3268 100.117 12.0924 100.117 12.9779C100.117 14.4721 100.385 15.5605 100.919 16.2431C101.473 16.9257 102.266 17.2669 103.299 17.2669C103.76 17.2669 104.139 17.2116 104.434 17.1009C104.747 16.9902 104.996 16.8334 105.181 16.6305C105.384 16.4091 105.522 16.1509 105.596 15.8557C105.688 15.5605 105.744 15.2377 105.762 14.8872L109.802 15.3023C109.784 15.9295 109.664 16.5567 109.442 17.1839C109.239 17.7927 108.889 18.3553 108.391 18.8719C107.893 19.37 107.219 19.7758 106.371 20.0894C105.541 20.403 104.517 20.5598 103.299 20.5598Z" fill="white"/>
<path d="M117.349 20.5598C116.371 20.5598 115.467 20.4676 114.637 20.2831C113.825 20.0986 113.106 19.8035 112.479 19.3976C111.87 18.9918 111.4 18.4753 111.068 17.848C110.735 17.2024 110.569 16.4368 110.569 15.5513L114.305 14.8872C114.36 15.4037 114.517 15.8557 114.775 16.2431C115.052 16.6121 115.412 16.898 115.855 17.1009C116.316 17.2854 116.879 17.3776 117.543 17.3776C118.17 17.3776 118.686 17.2762 119.092 17.0732C119.517 16.8703 119.729 16.5475 119.729 16.1047C119.729 15.8465 119.636 15.6436 119.452 15.496C119.286 15.3299 118.991 15.1824 118.566 15.0532C118.161 14.9057 117.589 14.7396 116.851 14.5551C115.984 14.3522 115.172 14.1401 114.416 13.9187C113.678 13.6789 113.023 13.3929 112.451 13.0609C111.898 12.7288 111.464 12.3138 111.151 11.8157C110.855 11.2991 110.708 10.6535 110.708 9.87868C110.708 8.90096 110.966 8.0616 111.483 7.36059C112.018 6.65958 112.765 6.1246 113.724 5.75565C114.683 5.36825 115.799 5.17455 117.072 5.17455C118.234 5.17455 119.295 5.3498 120.254 5.7003C121.214 6.03236 121.979 6.56734 122.551 7.30524C123.141 8.0247 123.418 8.96553 123.381 10.1277L119.646 10.7642C119.646 10.2661 119.535 9.84179 119.314 9.49128C119.092 9.14078 118.779 8.87329 118.373 8.68881C117.967 8.50434 117.478 8.4121 116.906 8.4121C116.261 8.4121 115.753 8.52279 115.384 8.74416C115.034 8.96553 114.859 9.26069 114.859 9.62964C114.859 9.90635 114.969 10.1462 115.191 10.3491C115.43 10.5336 115.781 10.6996 116.242 10.8472C116.703 10.9763 117.294 11.1147 118.013 11.2623C118.677 11.4098 119.351 11.5851 120.033 11.788C120.716 11.9725 121.352 12.24 121.942 12.5905C122.533 12.9225 123.003 13.3653 123.354 13.9187C123.723 14.4537 123.907 15.1455 123.907 15.9941C123.907 16.9164 123.649 17.7281 123.132 18.4291C122.634 19.1117 121.896 19.6375 120.919 20.0064C119.959 20.3754 118.769 20.5598 117.349 20.5598Z" fill="white"/>
<path d="M131.442 20.5598C130.464 20.5598 129.56 20.4676 128.73 20.2831C127.918 20.0986 127.199 19.8035 126.572 19.3976C125.963 18.9918 125.493 18.4753 125.16 17.848C124.828 17.2024 124.662 16.4368 124.662 15.5513L128.398 14.8872C128.453 15.4037 128.61 15.8557 128.868 16.2431C129.145 16.6121 129.505 16.898 129.948 17.1009C130.409 17.2854 130.971 17.3776 131.636 17.3776C132.263 17.3776 132.779 17.2762 133.185 17.0732C133.609 16.8703 133.822 16.5475 133.822 16.1047C133.822 15.8465 133.729 15.6436 133.545 15.496C133.379 15.3299 133.084 15.1824 132.659 15.0532C132.254 14.9057 131.682 14.7396 130.944 14.5551C130.077 14.3522 129.265 14.1401 128.509 13.9187C127.771 13.6789 127.116 13.3929 126.544 13.0609C125.991 12.7288 125.557 12.3138 125.243 11.8157C124.948 11.2991 124.801 10.6535 124.801 9.87868C124.801 8.90096 125.059 8.0616 125.576 7.36059C126.111 6.65958 126.858 6.1246 127.817 5.75565C128.776 5.36825 129.892 5.17455 131.165 5.17455C132.327 5.17455 133.388 5.3498 134.347 5.7003C135.307 6.03236 136.072 6.56734 136.644 7.30524C137.234 8.0247 137.511 8.96553 137.474 10.1277L133.739 10.7642C133.739 10.2661 133.628 9.84179 133.407 9.49128C133.185 9.14078 132.872 8.87329 132.466 8.68881C132.06 8.50434 131.571 8.4121 130.999 8.4121C130.353 8.4121 129.846 8.52279 129.477 8.74416C129.127 8.96553 128.951 9.26069 128.951 9.62964C128.951 9.90635 129.062 10.1462 129.284 10.3491C129.523 10.5336 129.874 10.6996 130.335 10.8472C130.796 10.9763 131.387 11.1147 132.106 11.2623C132.77 11.4098 133.443 11.5851 134.126 11.788C134.809 11.9725 135.445 12.24 136.035 12.5905C136.626 12.9225 137.096 13.3653 137.447 13.9187C137.816 14.4537 138 15.1455 138 15.9941C138 16.9164 137.742 17.7281 137.225 18.4291C136.727 19.1117 135.989 19.6375 135.011 20.0064C134.052 20.3754 132.862 20.5598 131.442 20.5598Z" fill="white"/>
</svg>
