<svg width="20" height="20" viewBox="0 0 20 20" fill="none" xmlns="http://www.w3.org/2000/svg">
<path d="M9 16H11C12.9422 16 14.198 15.9955 15.123 15.8711C15.9901 15.7545 16.2618 15.5663 16.4141 15.4141C16.5663 15.2618 16.7545 14.9901 16.8711 14.123C16.9955 13.198 17 11.9422 17 10C17 8.05784 16.9955 6.80197 16.8711 5.87695C16.7545 5.00986 16.5663 4.73816 16.4141 4.58594C16.2618 4.43372 15.9901 4.24554 15.123 4.12891C14.198 4.00454 12.9422 4 11 4H9C7.05784 4 5.80197 4.00454 4.87695 4.12891C4.00986 4.24554 3.73816 4.43372 3.58594 4.58594C3.43372 4.73816 3.24554 5.00986 3.12891 5.87695C3.00454 6.80197 3 8.05784 3 10H1C1 6.34627 0.999997 4.46248 2.06543 3.2832L2.17188 3.17187C3.197 2.14675 4.76851 2.01797 7.67188 2.00195L9 2L11 2C14.6537 2 16.5375 2 17.7168 3.06543L17.8281 3.17188C18.9997 4.34345 19 6.22876 19 10C19 13.7712 18.9997 15.6566 17.8281 16.8281C16.6566 17.9997 14.7712 18 11 18H9C5.22876 18 3.34345 17.9997 2.17187 16.8281C1.0003 15.6566 1 13.7712 1 10H3C3 11.9422 3.00454 13.198 3.12891 14.123C3.24554 14.9901 3.43372 15.2618 3.58594 15.4141C3.73816 15.5663 4.00986 15.7545 4.87695 15.8711C5.80197 15.9955 7.05784 16 9 16Z" fill="#40E63D"/>
<path d="M4.46914 6.37539C4.81414 5.94413 5.44412 5.87413 5.87538 6.21914L7.58142 7.58534C8.38807 8.23066 8.92248 8.65557 9.36461 8.92713C9.7829 9.18402 10.0144 9.23577 10.2045 9.23084C10.3945 9.2259 10.6232 9.1615 11.0277 8.88318C11.455 8.5891 11.9661 8.13738 12.7376 7.45155L14.0863 6.25332C14.499 5.8864 15.1305 5.92354 15.4974 6.33632C15.8643 6.7491 15.8272 7.38053 15.4144 7.74745L14.0667 8.94568C13.333 9.59791 12.7152 10.1505 12.1615 10.5316C11.5847 10.9285 10.9794 11.2111 10.2562 11.2298C9.53304 11.2486 8.91429 10.9976 8.31774 10.6312C7.74493 10.2794 7.09904 9.76016 6.33241 9.14685L4.62539 7.78163C4.19413 7.43662 4.12413 6.80664 4.46914 6.37539Z" fill="#40E63D"/>
</svg>
