<svg width="20" height="20" viewBox="0 0 20 20" fill="none" xmlns="http://www.w3.org/2000/svg">
<path fill-rule="evenodd" clip-rule="evenodd" d="M4.9442 3.92071C5.2657 3.58931 5.44252 3.14663 5.43882 2.68664C5.42221 2.24015 5.23566 1.81687 4.91732 1.50335C4.59898 1.18984 4.1729 1.00978 3.72621 1C3.27835 1.01018 2.85104 1.18997 2.53063 1.50304C2.21021 1.81611 2.02056 2.23913 2 2.68664C2.00665 3.1461 2.18946 3.58547 2.51068 3.91405C2.8319 4.24264 3.26702 4.43535 3.72621 4.45242C4.18619 4.4416 4.62355 4.25068 4.9442 3.92071ZM3.40718 6.72518C2.68133 6.7091 2.18672 6.69797 2.18672 7.58581V17.4682C2.18672 18.3375 2.65908 18.3202 3.33917 18.2942C3.46283 18.2885 3.59225 18.2852 3.72745 18.2843C3.86346 18.2852 3.99289 18.2885 4.11572 18.2942C4.79334 18.319 5.25581 18.3375 5.25581 17.4682V7.58704C5.25581 6.69921 4.77108 6.7091 4.04771 6.72641C3.83382 6.73146 3.61984 6.73146 3.40595 6.72641L3.40718 6.72518ZM8.45721 6.74372C8.12829 6.80926 7.91684 7.01947 7.91684 7.58581V17.4682C7.91684 18.3375 8.37065 18.3202 9.05198 18.2942C9.17564 18.2885 9.30671 18.2852 9.4452 18.2843C9.58369 18.2852 9.71518 18.2885 9.83966 18.2942C10.5247 18.319 10.9872 18.3375 10.9872 17.4682V12.1981C10.9608 11.9287 10.992 11.6568 11.0786 11.4004C11.1653 11.1439 11.3055 10.9088 11.4898 10.7107C11.6742 10.5125 11.8986 10.3558 12.1481 10.2509C12.3976 10.146 12.6666 10.0953 12.9372 10.1022C13.2091 10.0859 13.4813 10.1284 13.7353 10.2267C13.9893 10.325 14.2192 10.4769 14.4093 10.672C14.5993 10.8671 14.7452 11.1009 14.8368 11.3574C14.9284 11.6139 14.9638 11.8871 14.9404 12.1585V17.4274C14.9404 18.2979 15.393 18.2806 16.0743 18.2547C16.1979 18.2489 16.329 18.2456 16.4675 18.2448C16.606 18.2456 16.7375 18.2489 16.862 18.2547C17.5433 18.2794 17.9959 18.2979 17.9959 17.4287V10.6821C18.0212 10.1282 17.9297 9.57516 17.7272 9.05896C17.5248 8.54276 17.2159 8.07496 16.8207 7.68599C16.4256 7.29701 15.953 6.99557 15.4336 6.80127C14.9143 6.60697 14.3599 6.52417 13.8065 6.55824C13.2428 6.50648 12.6752 6.60053 12.1583 6.83137C11.6414 7.0622 11.1926 7.42207 10.8549 7.87639C10.8685 7.3892 10.7102 6.74372 10.3157 6.74372C10.202 6.74372 10.0276 6.73754 9.82977 6.73136C9.33515 6.71652 8.69215 6.69674 8.45721 6.74372Z" fill="#43D7F6"/>
</svg>
