<svg width="20" height="20" viewBox="0 0 20 20" fill="none" xmlns="http://www.w3.org/2000/svg">
<path d="M10.5 10.5C11.0523 10.5 11.5 10.9477 11.5 11.5C11.5 12.0523 11.0523 12.5 10.5 12.5H6.5C5.94772 12.5 5.5 12.0523 5.5 11.5C5.5 10.9477 5.94772 10.5 6.5 10.5H10.5ZM13 7C13.5523 7 14 7.44772 14 8C14 8.55228 13.5523 9 13 9H6.5C5.94772 9 5.5 8.55228 5.5 8C5.5 7.44772 5.94772 7 6.5 7H13Z" fill="#853EE3"/>
<path d="M16 11V9C16 7.05784 15.9955 5.80197 15.8711 4.87695C15.7545 4.00986 15.5663 3.73816 15.4141 3.58594C15.2618 3.43372 14.9901 3.24554 14.123 3.12891C13.198 3.00454 11.9422 3 10 3C8.05784 3 6.80197 3.00454 5.87695 3.12891C5.00986 3.24554 4.73816 3.43372 4.58594 3.58594C4.43372 3.73816 4.24554 4.00986 4.12891 4.87695C4.00454 5.80197 4 7.05784 4 9V11C4 12.9422 4.00454 14.198 4.12891 15.123C4.24554 15.9901 4.43372 16.2618 4.58594 16.4141C4.73816 16.5663 5.00986 16.7545 5.87695 16.8711C6.80197 16.9955 8.05784 17 10 17V19C6.34627 19 4.46248 19 3.2832 17.9346L3.17188 17.8281C2.14675 16.803 2.01797 15.2315 2.00195 12.3281L2 11V9C2 5.34627 2 3.46248 3.06543 2.2832L3.17188 2.17188C4.34345 1.0003 6.22876 1 10 1C13.7712 1 15.6566 1.0003 16.8281 2.17188C17.9997 3.34345 18 5.22876 18 9V11C18 14.7712 17.9997 16.6566 16.8281 17.8281C15.6566 18.9997 13.7712 19 10 19V17C11.9422 17 13.198 16.9955 14.123 16.8711C14.9901 16.7545 15.2618 16.5663 15.4141 16.4141C15.5663 16.2618 15.7545 15.9901 15.8711 15.123C15.9955 14.198 16 12.9422 16 11Z" fill="#853EE3"/>
</svg>
